<svg width="16" height="15" viewBox="0 0 16 15" fill="none" xmlns="http://www.w3.org/2000/svg">
<path d="M15.0274 7.5217C15.028 7.02198 14.9858 6.52313 14.9012 6.03064H7.99219V8.8549H11.9494C11.8684 9.30597 11.697 9.73596 11.4455 10.119C11.1941 10.5019 10.8677 10.83 10.4862 11.0833V12.9166H12.8479C14.2307 11.6405 15.0274 9.7532 15.0274 7.5217Z" fill="#4285F4"/>
<path d="M7.99501 14.6878C9.97208 14.6878 11.6368 14.038 12.8507 12.9177L10.489 11.0844C9.83166 11.5305 8.98507 11.7851 7.99501 11.7851C6.08408 11.7851 4.46213 10.4957 3.88214 8.75818H1.44922V10.6475C2.05899 11.862 2.99401 12.883 4.1499 13.5964C5.30578 14.3099 6.63702 14.6877 7.99501 14.6878Z" fill="#34A853"/>
<path d="M3.88101 8.75824C3.57438 7.84776 3.57438 6.86178 3.88101 5.9513V4.06201H1.44808C0.93512 5.08371 0.667969 6.21132 0.667969 7.35477C0.667969 8.49823 0.93512 9.62583 1.44808 10.6475L3.88101 8.75824Z" fill="#FBBC04"/>
<path d="M7.99501 2.92428C9.0398 2.90719 10.0493 3.30232 10.8054 4.02424L12.8965 1.93126C11.5705 0.68471 9.81397 0.000334296 7.99501 0.0215993C6.63702 0.0216612 5.30578 0.399513 4.1499 1.11297C2.99401 1.82642 2.05899 2.8474 1.44922 4.06192L3.88214 5.95121C4.46213 4.21368 6.08408 2.92428 7.99501 2.92428Z" fill="#EA4335"/>
</svg>
