<svg width="146" height="30" viewBox="0 0 146 30" fill="none" xmlns="http://www.w3.org/2000/svg">
<path d="M55.174 23.27C54.7435 23.5882 54.2101 23.8315 53.5737 24C52.956 24.1497 52.3009 24.2246 51.6084 24.2246C49.8115 24.2246 48.4171 23.766 47.425 22.8489C46.4517 21.9317 45.9651 20.5841 45.9651 18.8059V12.6011H43.6348V9.23198H45.9651V5.55401H50.3449V9.23198H54.1071V12.6011H50.3449V18.7498C50.3449 19.3862 50.504 19.8822 50.8222 20.2378C51.1592 20.5747 51.6271 20.7432 52.226 20.7432C52.9186 20.7432 53.5082 20.556 53.9948 20.1817L55.174 23.27ZM63.5118 24.2246C61.9208 24.2246 60.4889 23.8971 59.2161 23.2419C57.962 22.5681 56.9794 21.6416 56.2681 20.4624C55.5569 19.2832 55.2012 17.9449 55.2012 16.4475C55.2012 14.9501 55.5569 13.6118 56.2681 12.4327C56.9794 11.2535 57.962 10.3363 59.2161 9.6812C60.4889 9.00737 61.9208 8.67046 63.5118 8.67046C65.1027 8.67046 66.5253 9.00737 67.7793 9.6812C69.0334 10.3363 70.016 11.2535 70.7273 12.4327C71.4386 13.6118 71.7942 14.9501 71.7942 16.4475C71.7942 17.9449 71.4386 19.2832 70.7273 20.4624C70.016 21.6416 69.0334 22.5681 67.7793 23.2419C66.5253 23.8971 65.1027 24.2246 63.5118 24.2246ZM63.5118 20.6309C64.6348 20.6309 65.552 20.2565 66.2632 19.5078C66.9932 18.7404 67.3582 17.7203 67.3582 16.4475C67.3582 15.1748 66.9932 14.164 66.2632 13.4153C65.552 12.6479 64.6348 12.2642 63.5118 12.2642C62.3887 12.2642 61.4622 12.6479 60.7322 13.4153C60.0022 14.164 59.6373 15.1748 59.6373 16.4475C59.6373 17.7203 60.0022 18.7404 60.7322 19.5078C61.4622 20.2565 62.3887 20.6309 63.5118 20.6309ZM83.6219 23.27C83.1914 23.5882 82.658 23.8315 82.0216 24C81.4039 24.1497 80.7488 24.2246 80.0562 24.2246C78.2594 24.2246 76.8649 23.766 75.8729 22.8489C74.8996 21.9317 74.413 20.5841 74.413 18.8059V12.6011H72.0826V9.23198H74.413V5.55401H78.7928V9.23198H82.555V12.6011H78.7928V18.7498C78.7928 19.3862 78.9519 19.8822 79.2701 20.2378C79.607 20.5747 80.075 20.7432 80.6739 20.7432C81.3665 20.7432 81.9561 20.556 82.4427 20.1817L83.6219 23.27ZM99.5683 16.5037C99.5683 16.5598 99.5402 16.9529 99.484 17.6829H88.0571C88.2629 18.6188 88.7496 19.3581 89.517 19.9009C90.2844 20.4437 91.239 20.7151 92.3808 20.7151C93.1669 20.7151 93.8594 20.6028 94.4584 20.3782C95.0761 20.1349 95.647 19.7605 96.171 19.2551L98.5014 21.782C97.0788 23.4104 95.0012 24.2246 92.2685 24.2246C90.5652 24.2246 89.0584 23.8971 87.7482 23.2419C86.438 22.5681 85.4273 21.6416 84.716 20.4624C84.0047 19.2832 83.6491 17.9449 83.6491 16.4475C83.6491 14.9689 83.9954 13.6399 84.6879 12.4607C85.3992 11.2628 86.3631 10.3363 87.5798 9.6812C88.8151 9.00737 90.1908 8.67046 91.7069 8.67046C93.1856 8.67046 94.5239 8.98865 95.7218 9.62504C96.9197 10.2614 97.8556 11.1786 98.5294 12.3765C99.222 13.5557 99.5683 14.9314 99.5683 16.5037ZM91.735 11.9834C90.743 11.9834 89.9101 12.2642 89.2363 12.8257C88.5624 13.3872 88.1506 14.1547 88.0009 15.128H95.4411C95.2913 14.1734 94.8795 13.4153 94.2057 12.8538C93.5319 12.2736 92.7083 11.9834 91.735 11.9834ZM107.323 8.67046C109.663 8.67046 111.46 9.23198 112.714 10.355C113.968 11.4593 114.595 13.1346 114.595 15.3806V24H110.496V22.1189C109.672 23.5227 108.137 24.2246 105.891 24.2246C104.731 24.2246 103.72 24.0281 102.859 23.635C102.017 23.2419 101.371 22.6991 100.922 22.0066C100.473 21.3141 100.248 20.5279 100.248 19.6482C100.248 18.2444 100.772 17.1401 101.82 16.3352C102.887 15.5304 104.525 15.128 106.734 15.128H110.215C110.215 14.1734 109.925 13.4434 109.345 12.938C108.764 12.4139 107.894 12.1519 106.734 12.1519C105.929 12.1519 105.133 12.2829 104.347 12.545C103.58 12.7883 102.925 13.1252 102.382 13.5557L100.81 10.4954C101.633 9.91516 102.616 9.46595 103.758 9.14775C104.918 8.82956 106.107 8.67046 107.323 8.67046ZM106.986 21.2766C107.735 21.2766 108.399 21.1082 108.98 20.7713C109.56 20.4156 109.972 19.9009 110.215 19.2271V17.6829H107.211C105.414 17.6829 104.516 18.2725 104.516 19.4517C104.516 20.0132 104.731 20.4624 105.161 20.7993C105.611 21.1175 106.219 21.2766 106.986 21.2766ZM137.061 8.67046C138.951 8.67046 140.449 9.23198 141.553 10.355C142.676 11.4593 143.238 13.1252 143.238 15.3526V24H138.858V16.0264C138.858 14.8285 138.605 13.9394 138.1 13.3592C137.613 12.7602 136.911 12.4607 135.994 12.4607C134.965 12.4607 134.15 12.7976 133.551 13.4715C132.953 14.1266 132.653 15.1092 132.653 16.4195V24H128.273V16.0264C128.273 13.6493 127.319 12.4607 125.409 12.4607C124.399 12.4607 123.594 12.7976 122.995 13.4715C122.396 14.1266 122.096 15.1092 122.096 16.4195V24H117.717V8.89507H121.9V10.6358C122.461 9.99939 123.145 9.51274 123.949 9.17583C124.773 8.83891 125.671 8.67046 126.645 8.67046C127.712 8.67046 128.676 8.88571 129.537 9.31621C130.398 9.72799 131.09 10.3363 131.614 11.1412C132.232 10.355 133.009 9.74671 133.945 9.31621C134.899 8.88571 135.938 8.67046 137.061 8.67046Z" fill="black"/>
<ellipse cx="22.7911" cy="13.1998" rx="5.69739" ry="5.59999" fill="black"/>
<rect x="17.0938" y="24.3999" width="11.3948" height="5.59999" fill="black"/>
<ellipse cx="5.69739" cy="7.59999" rx="5.69739" ry="5.59999" fill="black"/>
<rect y="18.8" width="11.3948" height="5.59999" fill="black"/>
</svg>
